<svg xmlns="http://www.w3.org/2000/svg" xmlns:xlink="http://www.w3.org/1999/xlink" width="276" zoomAndPan="magnify" viewBox="0 0 206.87999 61.499998" height="82" preserveAspectRatio="xMidYMid meet" version="1.0"><defs><g/><clipPath id="01307d5122"><path d="M 6.875 7.195312 L 50.769531 7.195312 L 50.769531 54.808594 L 6.875 54.808594 Z M 6.875 7.195312 " clip-rule="nonzero"/></clipPath><clipPath id="df83825270"><rect x="0" width="121" y="0" height="34"/></clipPath></defs><g clip-path="url(#01307d5122)"><path fill="#c29a3b" d="M 17.398438 19.023438 C 16.296875 19.855469 14.925781 20.347656 13.441406 20.347656 C 9.820312 20.347656 6.878906 17.40625 6.878906 13.785156 C 6.878906 10.164062 9.820312 7.222656 13.441406 7.222656 C 17.066406 7.222656 20.007812 10.164062 20.007812 13.785156 C 20.007812 15.371094 19.445312 16.824219 18.507812 17.960938 L 23.914062 23.605469 C 25.417969 22.398438 27.324219 21.675781 29.398438 21.675781 C 30.804688 21.675781 32.132812 22.003906 33.308594 22.59375 L 36.152344 17.953125 C 35.074219 17.035156 34.386719 15.667969 34.386719 14.140625 C 34.386719 11.378906 36.628906 9.136719 39.390625 9.136719 C 42.152344 9.136719 44.394531 11.378906 44.394531 14.140625 C 44.394531 16.902344 42.152344 19.144531 39.390625 19.144531 C 38.707031 19.144531 38.054688 19.007812 37.460938 18.757812 L 34.617188 23.398438 C 36.769531 24.996094 38.167969 27.558594 38.167969 30.441406 C 38.167969 32.054688 37.730469 33.5625 36.96875 34.863281 L 44.625 40.285156 C 45.253906 39.71875 46.085938 39.371094 46.996094 39.371094 C 48.945312 39.371094 50.53125 40.957031 50.53125 42.90625 C 50.53125 44.855469 48.945312 46.441406 46.996094 46.441406 C 45.046875 46.441406 43.460938 44.855469 43.460938 42.90625 C 43.460938 42.421875 43.558594 41.960938 43.738281 41.539062 L 36.082031 36.117188 C 34.472656 38.007812 32.074219 39.207031 29.398438 39.207031 C 28.84375 39.207031 28.296875 39.15625 27.765625 39.054688 L 26.539062 43.398438 C 28.671875 44.3125 30.167969 46.433594 30.167969 48.898438 C 30.167969 52.199219 27.488281 54.875 24.191406 54.875 C 20.890625 54.875 18.210938 52.199219 18.210938 48.898438 C 18.210938 45.597656 20.890625 42.917969 24.191406 42.917969 C 24.484375 42.917969 24.777344 42.941406 25.0625 42.980469 L 26.289062 38.636719 C 23.375 37.53125 21.203125 34.914062 20.730469 31.75 L 13.164062 32.21875 C 12.890625 33.617188 11.65625 34.671875 10.183594 34.671875 C 8.503906 34.671875 7.144531 33.308594 7.144531 31.632812 C 7.144531 29.957031 8.503906 28.597656 10.183594 28.597656 C 11.527344 28.597656 12.667969 29.472656 13.066406 30.683594 L 20.636719 30.214844 C 20.691406 28.09375 21.5 26.15625 22.804688 24.667969 Z M 24.191406 44.457031 C 21.738281 44.457031 19.746094 46.445312 19.746094 48.898438 C 19.746094 51.347656 21.738281 53.339844 24.191406 53.339844 C 26.640625 53.339844 28.632812 51.347656 28.632812 48.898438 C 28.632812 46.445312 26.640625 44.457031 24.191406 44.457031 Z M 10.183594 30.132812 C 9.355469 30.132812 8.683594 30.804688 8.683594 31.632812 C 8.683594 32.460938 9.355469 33.132812 10.183594 33.132812 C 11.011719 33.132812 11.683594 32.460938 11.683594 31.632812 C 11.683594 30.804688 11.011719 30.132812 10.183594 30.132812 Z M 13.441406 8.757812 C 10.667969 8.757812 8.417969 11.011719 8.417969 13.785156 C 8.417969 16.558594 10.667969 18.8125 13.441406 18.8125 C 16.21875 18.8125 18.46875 16.558594 18.46875 13.785156 C 18.46875 11.011719 16.21875 8.757812 13.441406 8.757812 Z M 39.390625 10.671875 C 37.476562 10.671875 35.925781 12.226562 35.925781 14.140625 C 35.925781 16.054688 37.476562 17.605469 39.390625 17.605469 C 41.304688 17.605469 42.859375 16.054688 42.859375 14.140625 C 42.859375 12.226562 41.304688 10.671875 39.390625 10.671875 Z M 46.996094 40.910156 C 45.894531 40.910156 45 41.804688 45 42.90625 C 45 44.007812 45.894531 44.902344 46.996094 44.902344 C 48.097656 44.902344 48.992188 44.007812 48.992188 42.90625 C 48.992188 41.804688 48.097656 40.910156 46.996094 40.910156 Z M 29.398438 23.210938 C 25.410156 23.210938 22.171875 26.453125 22.171875 30.441406 C 22.171875 34.429688 25.410156 37.671875 29.398438 37.671875 C 33.390625 37.671875 36.628906 34.429688 36.628906 30.441406 C 36.628906 26.453125 33.390625 23.210938 29.398438 23.210938 Z M 29.398438 23.210938 " fill-opacity="1" fill-rule="evenodd"/></g><g transform="matrix(1, 0, 0, 1, 47, 11)"><g clip-path="url(#df83825270)"><g fill="#1f2937" fill-opacity="1"><g transform="translate(0.480819, 24.412837)"><g><path d="M 6.90625 -16.359375 C 8.6875 -16.359375 10.226562 -16.023438 11.53125 -15.359375 C 12.84375 -14.691406 13.84375 -13.738281 14.53125 -12.5 C 15.226562 -11.269531 15.578125 -9.816406 15.578125 -8.140625 C 15.578125 -6.460938 15.226562 -5.007812 14.53125 -3.78125 C 13.84375 -2.5625 12.84375 -1.625 11.53125 -0.96875 C 10.226562 -0.320312 8.6875 0 6.90625 0 L 1.8125 0 L 1.8125 -16.359375 Z M 6.90625 -1.765625 C 9.007812 -1.765625 10.617188 -2.320312 11.734375 -3.4375 C 12.847656 -4.550781 13.40625 -6.117188 13.40625 -8.140625 C 13.40625 -10.171875 12.84375 -11.757812 11.71875 -12.90625 C 10.601562 -14.050781 9 -14.625 6.90625 -14.625 L 3.9375 -14.625 L 3.9375 -1.765625 Z M 6.90625 -1.765625 "/></g></g></g><g fill="#1f2937" fill-opacity="1"><g transform="translate(17.076556, 24.412837)"><g><path d="M 1.015625 -6.484375 C 1.015625 -7.796875 1.28125 -8.945312 1.8125 -9.9375 C 2.34375 -10.925781 3.070312 -11.695312 4 -12.25 C 4.925781 -12.800781 5.960938 -13.078125 7.109375 -13.078125 C 8.234375 -13.078125 9.207031 -12.832031 10.03125 -12.34375 C 10.863281 -11.851562 11.488281 -11.242188 11.90625 -10.515625 L 11.90625 -12.859375 L 14.0625 -12.859375 L 14.0625 0 L 11.90625 0 L 11.90625 -2.390625 C 11.476562 -1.640625 10.84375 -1.015625 10 -0.515625 C 9.164062 -0.0234375 8.195312 0.21875 7.09375 0.21875 C 5.945312 0.21875 4.910156 -0.0625 3.984375 -0.625 C 3.066406 -1.195312 2.34375 -1.988281 1.8125 -3 C 1.28125 -4.019531 1.015625 -5.179688 1.015625 -6.484375 Z M 11.90625 -6.453125 C 11.90625 -7.421875 11.707031 -8.265625 11.3125 -8.984375 C 10.914062 -9.703125 10.382812 -10.253906 9.71875 -10.640625 C 9.0625 -11.023438 8.332031 -11.21875 7.53125 -11.21875 C 6.738281 -11.21875 6.007812 -11.03125 5.34375 -10.65625 C 4.6875 -10.28125 4.160156 -9.734375 3.765625 -9.015625 C 3.378906 -8.296875 3.1875 -7.453125 3.1875 -6.484375 C 3.1875 -5.492188 3.378906 -4.632812 3.765625 -3.90625 C 4.160156 -3.175781 4.6875 -2.617188 5.34375 -2.234375 C 6.007812 -1.859375 6.738281 -1.671875 7.53125 -1.671875 C 8.332031 -1.671875 9.0625 -1.859375 9.71875 -2.234375 C 10.382812 -2.617188 10.914062 -3.175781 11.3125 -3.90625 C 11.707031 -4.632812 11.90625 -5.484375 11.90625 -6.453125 Z M 11.90625 -6.453125 "/></g></g></g><g fill="#1f2937" fill-opacity="1"><g transform="translate(32.94461, 24.412837)"><g><path d="M 4.40625 -11.09375 L 4.40625 -3.515625 C 4.40625 -2.890625 4.535156 -2.445312 4.796875 -2.1875 C 5.066406 -1.9375 5.535156 -1.8125 6.203125 -1.8125 L 7.765625 -1.8125 L 7.765625 0 L 5.84375 0 C 4.65625 0 3.765625 -0.269531 3.171875 -0.8125 C 2.578125 -1.363281 2.28125 -2.265625 2.28125 -3.515625 L 2.28125 -11.09375 L 0.609375 -11.09375 L 0.609375 -12.859375 L 2.28125 -12.859375 L 2.28125 -16.09375 L 4.40625 -16.09375 L 4.40625 -12.859375 L 7.765625 -12.859375 L 7.765625 -11.09375 Z M 4.40625 -11.09375 "/></g></g></g><g fill="#1f2937" fill-opacity="1"><g transform="translate(41.488954, 24.412837)"><g><path d="M 1.015625 -6.484375 C 1.015625 -7.796875 1.28125 -8.945312 1.8125 -9.9375 C 2.34375 -10.925781 3.070312 -11.695312 4 -12.25 C 4.925781 -12.800781 5.960938 -13.078125 7.109375 -13.078125 C 8.234375 -13.078125 9.207031 -12.832031 10.03125 -12.34375 C 10.863281 -11.851562 11.488281 -11.242188 11.90625 -10.515625 L 11.90625 -12.859375 L 14.0625 -12.859375 L 14.0625 0 L 11.90625 0 L 11.90625 -2.390625 C 11.476562 -1.640625 10.84375 -1.015625 10 -0.515625 C 9.164062 -0.0234375 8.195312 0.21875 7.09375 0.21875 C 5.945312 0.21875 4.910156 -0.0625 3.984375 -0.625 C 3.066406 -1.195312 2.34375 -1.988281 1.8125 -3 C 1.28125 -4.019531 1.015625 -5.179688 1.015625 -6.484375 Z M 11.90625 -6.453125 C 11.90625 -7.421875 11.707031 -8.265625 11.3125 -8.984375 C 10.914062 -9.703125 10.382812 -10.253906 9.71875 -10.640625 C 9.0625 -11.023438 8.332031 -11.21875 7.53125 -11.21875 C 6.738281 -11.21875 6.007812 -11.03125 5.34375 -10.65625 C 4.6875 -10.28125 4.160156 -9.734375 3.765625 -9.015625 C 3.378906 -8.296875 3.1875 -7.453125 3.1875 -6.484375 C 3.1875 -5.492188 3.378906 -4.632812 3.765625 -3.90625 C 4.160156 -3.175781 4.6875 -2.617188 5.34375 -2.234375 C 6.007812 -1.859375 6.738281 -1.671875 7.53125 -1.671875 C 8.332031 -1.671875 9.0625 -1.859375 9.71875 -2.234375 C 10.382812 -2.617188 10.914062 -3.175781 11.3125 -3.90625 C 11.707031 -4.632812 11.90625 -5.484375 11.90625 -6.453125 Z M 11.90625 -6.453125 "/></g></g></g><g fill="#1f2937" fill-opacity="1"><g transform="translate(57.357008, 24.412837)"><g><path d="M 6.59375 -1.96875 L 10.578125 -12.859375 L 12.859375 -12.859375 L 7.8125 0 L 5.328125 0 L 0.28125 -12.859375 L 2.578125 -12.859375 Z M 6.59375 -1.96875 "/></g></g></g><g fill="#1f2937" fill-opacity="1"><g transform="translate(70.525615, 24.412837)"><g><path d="M 13.546875 -6.921875 C 13.546875 -6.515625 13.519531 -6.082031 13.46875 -5.625 L 3.1875 -5.625 C 3.269531 -4.363281 3.703125 -3.375 4.484375 -2.65625 C 5.273438 -1.945312 6.238281 -1.59375 7.375 -1.59375 C 8.289062 -1.59375 9.054688 -1.804688 9.671875 -2.234375 C 10.296875 -2.671875 10.734375 -3.25 10.984375 -3.96875 L 13.28125 -3.96875 C 12.9375 -2.726562 12.25 -1.71875 11.21875 -0.9375 C 10.1875 -0.164062 8.90625 0.21875 7.375 0.21875 C 6.144531 0.21875 5.050781 -0.0546875 4.09375 -0.609375 C 3.132812 -1.160156 2.378906 -1.9375 1.828125 -2.9375 C 1.285156 -3.945312 1.015625 -5.117188 1.015625 -6.453125 C 1.015625 -7.785156 1.28125 -8.953125 1.8125 -9.953125 C 2.34375 -10.953125 3.085938 -11.722656 4.046875 -12.265625 C 5.003906 -12.804688 6.113281 -13.078125 7.375 -13.078125 C 8.59375 -13.078125 9.671875 -12.804688 10.609375 -12.265625 C 11.546875 -11.734375 12.269531 -11.003906 12.78125 -10.078125 C 13.289062 -9.148438 13.546875 -8.097656 13.546875 -6.921875 Z M 11.328125 -7.375 C 11.328125 -8.1875 11.144531 -8.882812 10.78125 -9.46875 C 10.425781 -10.050781 9.941406 -10.492188 9.328125 -10.796875 C 8.710938 -11.109375 8.03125 -11.265625 7.28125 -11.265625 C 6.195312 -11.265625 5.273438 -10.921875 4.515625 -10.234375 C 3.753906 -9.546875 3.320312 -8.59375 3.21875 -7.375 Z M 11.328125 -7.375 "/></g></g></g><g fill="#1f2937" fill-opacity="1"><g transform="translate(85.079164, 24.412837)"><g><path d="M 3.9375 -10.765625 C 4.3125 -11.503906 4.847656 -12.078125 5.546875 -12.484375 C 6.242188 -12.890625 7.09375 -13.09375 8.09375 -13.09375 L 8.09375 -10.890625 L 7.53125 -10.890625 C 5.132812 -10.890625 3.9375 -9.59375 3.9375 -7 L 3.9375 0 L 1.8125 0 L 1.8125 -12.859375 L 3.9375 -12.859375 Z M 3.9375 -10.765625 "/></g></g></g><g fill="#1f2937" fill-opacity="1"><g transform="translate(93.834765, 24.412837)"><g><path d="M 6.359375 0.21875 C 5.367188 0.21875 4.484375 0.0507812 3.703125 -0.28125 C 2.921875 -0.625 2.300781 -1.097656 1.84375 -1.703125 C 1.394531 -2.304688 1.148438 -3 1.109375 -3.78125 L 3.3125 -3.78125 C 3.375 -3.132812 3.671875 -2.609375 4.203125 -2.203125 C 4.742188 -1.796875 5.457031 -1.59375 6.34375 -1.59375 C 7.15625 -1.59375 7.796875 -1.769531 8.265625 -2.125 C 8.734375 -2.488281 8.96875 -2.945312 8.96875 -3.5 C 8.96875 -4.0625 8.71875 -4.476562 8.21875 -4.75 C 7.71875 -5.019531 6.941406 -5.289062 5.890625 -5.5625 C 4.929688 -5.8125 4.148438 -6.066406 3.546875 -6.328125 C 2.953125 -6.585938 2.4375 -6.96875 2 -7.46875 C 1.570312 -7.976562 1.359375 -8.648438 1.359375 -9.484375 C 1.359375 -10.140625 1.550781 -10.738281 1.9375 -11.28125 C 2.332031 -11.832031 2.890625 -12.269531 3.609375 -12.59375 C 4.328125 -12.914062 5.148438 -13.078125 6.078125 -13.078125 C 7.503906 -13.078125 8.65625 -12.710938 9.53125 -11.984375 C 10.40625 -11.265625 10.875 -10.28125 10.9375 -9.03125 L 8.796875 -9.03125 C 8.753906 -9.707031 8.484375 -10.25 7.984375 -10.65625 C 7.492188 -11.0625 6.835938 -11.265625 6.015625 -11.265625 C 5.242188 -11.265625 4.628906 -11.097656 4.171875 -10.765625 C 3.722656 -10.441406 3.5 -10.015625 3.5 -9.484375 C 3.5 -9.054688 3.632812 -8.707031 3.90625 -8.4375 C 4.175781 -8.164062 4.519531 -7.945312 4.9375 -7.78125 C 5.351562 -7.613281 5.929688 -7.429688 6.671875 -7.234375 C 7.585938 -6.984375 8.332031 -6.734375 8.90625 -6.484375 C 9.488281 -6.242188 9.988281 -5.878906 10.40625 -5.390625 C 10.820312 -4.910156 11.035156 -4.28125 11.046875 -3.5 C 11.046875 -2.789062 10.847656 -2.15625 10.453125 -1.59375 C 10.066406 -1.03125 9.519531 -0.585938 8.8125 -0.265625 C 8.101562 0.0546875 7.285156 0.21875 6.359375 0.21875 Z M 6.359375 0.21875 "/></g></g></g><g fill="#1f2937" fill-opacity="1"><g transform="translate(106.087907, 24.412837)"><g><path d="M 13.546875 -6.921875 C 13.546875 -6.515625 13.519531 -6.082031 13.46875 -5.625 L 3.1875 -5.625 C 3.269531 -4.363281 3.703125 -3.375 4.484375 -2.65625 C 5.273438 -1.945312 6.238281 -1.59375 7.375 -1.59375 C 8.289062 -1.59375 9.054688 -1.804688 9.671875 -2.234375 C 10.296875 -2.671875 10.734375 -3.25 10.984375 -3.96875 L 13.28125 -3.96875 C 12.9375 -2.726562 12.25 -1.71875 11.21875 -0.9375 C 10.1875 -0.164062 8.90625 0.21875 7.375 0.21875 C 6.144531 0.21875 5.050781 -0.0546875 4.09375 -0.609375 C 3.132812 -1.160156 2.378906 -1.9375 1.828125 -2.9375 C 1.285156 -3.945312 1.015625 -5.117188 1.015625 -6.453125 C 1.015625 -7.785156 1.28125 -8.953125 1.8125 -9.953125 C 2.34375 -10.953125 3.085938 -11.722656 4.046875 -12.265625 C 5.003906 -12.804688 6.113281 -13.078125 7.375 -13.078125 C 8.59375 -13.078125 9.671875 -12.804688 10.609375 -12.265625 C 11.546875 -11.734375 12.269531 -11.003906 12.78125 -10.078125 C 13.289062 -9.148438 13.546875 -8.097656 13.546875 -6.921875 Z M 11.328125 -7.375 C 11.328125 -8.1875 11.144531 -8.882812 10.78125 -9.46875 C 10.425781 -10.050781 9.941406 -10.492188 9.328125 -10.796875 C 8.710938 -11.109375 8.03125 -11.265625 7.28125 -11.265625 C 6.195312 -11.265625 5.273438 -10.921875 4.515625 -10.234375 C 3.753906 -9.546875 3.320312 -8.59375 3.21875 -7.375 Z M 11.328125 -7.375 "/></g></g></g></g></g><g fill="#427898" fill-opacity="1"><g transform="translate(167.677084, 34.751299)"><g><path d="M 5.40625 -16.484375 L 5.40625 -6.625 C 5.40625 -5.632812 5.644531 -4.875 6.125 -4.34375 C 6.613281 -3.8125 7.328125 -3.546875 8.265625 -3.546875 C 9.203125 -3.546875 9.921875 -3.8125 10.421875 -4.34375 C 10.921875 -4.875 11.171875 -5.632812 11.171875 -6.625 L 11.171875 -16.484375 L 15.1875 -16.484375 L 15.1875 -6.640625 C 15.1875 -5.171875 14.875 -3.925781 14.25 -2.90625 C 13.625 -1.894531 12.78125 -1.128906 11.71875 -0.609375 C 10.664062 -0.0859375 9.492188 0.171875 8.203125 0.171875 C 6.898438 0.171875 5.734375 -0.0820312 4.703125 -0.59375 C 3.679688 -1.101562 2.875 -1.867188 2.28125 -2.890625 C 1.6875 -3.921875 1.390625 -5.171875 1.390625 -6.640625 L 1.390625 -16.484375 Z M 5.40625 -16.484375 "/></g></g></g><g fill="#427898" fill-opacity="1"><g transform="translate(184.222945, 34.751299)"><g><path d="M 5.46875 -11.25 C 5.863281 -11.863281 6.40625 -12.359375 7.09375 -12.734375 C 7.78125 -13.109375 8.585938 -13.296875 9.515625 -13.296875 C 10.585938 -13.296875 11.5625 -13.019531 12.4375 -12.46875 C 13.320312 -11.914062 14.015625 -11.128906 14.515625 -10.109375 C 15.023438 -9.097656 15.28125 -7.921875 15.28125 -6.578125 C 15.28125 -5.234375 15.023438 -4.046875 14.515625 -3.015625 C 14.015625 -1.992188 13.320312 -1.203125 12.4375 -0.640625 C 11.5625 -0.0859375 10.585938 0.1875 9.515625 0.1875 C 8.609375 0.1875 7.804688 0 7.109375 -0.375 C 6.410156 -0.75 5.863281 -1.234375 5.46875 -1.828125 L 5.46875 6.25 L 1.453125 6.25 L 1.453125 -13.109375 L 5.46875 -13.109375 Z M 11.203125 -6.578125 C 11.203125 -7.578125 10.921875 -8.363281 10.359375 -8.9375 C 9.804688 -9.507812 9.125 -9.796875 8.3125 -9.796875 C 7.507812 -9.796875 6.832031 -9.503906 6.28125 -8.921875 C 5.726562 -8.347656 5.453125 -7.554688 5.453125 -6.546875 C 5.453125 -5.546875 5.726562 -4.753906 6.28125 -4.171875 C 6.832031 -3.597656 7.507812 -3.3125 8.3125 -3.3125 C 9.113281 -3.3125 9.796875 -3.601562 10.359375 -4.1875 C 10.921875 -4.78125 11.203125 -5.578125 11.203125 -6.578125 Z M 11.203125 -6.578125 "/></g></g></g></svg>